<svg width="473" height="473" viewBox="0 0 473 473" fill="none" xmlns="http://www.w3.org/2000/svg">
<path d="M116.746 201.311L54.5351 236.022C53.5814 237.76 52.7067 239.545 51.9063 241.38L122.662 201.903C120.682 201.631 118.707 201.409 116.746 201.311Z" fill="#2F855A"/>
<path d="M148.011 210.726L46.3663 267.549C46.3576 268.848 46.3108 270.152 46.3771 271.438L151.245 212.813C150.182 212.096 149.119 211.384 148.011 210.726Z" fill="#2F855A"/>
<path d="M166.673 227.179L50.8657 292.045C51.281 293.111 51.715 294.167 52.1838 295.208L168.726 229.931C168.067 228.994 167.379 228.082 166.673 227.179Z" fill="#2F855A"/>
<path d="M177.674 247.929L63.1415 312.206C63.9185 313.084 64.7637 313.899 65.5865 314.736L178.695 251.263C178.397 250.136 178.029 249.035 177.674 247.929Z" fill="#2F855A"/>
<path d="M180.663 273.21L83.5291 327.829C84.7887 328.456 86.1 328.996 87.407 329.547L180.232 277.353C180.425 275.967 180.558 274.587 180.663 273.21Z" fill="#2F855A"/>
<path d="M161.882 314.696C164.16 312.372 166.264 309.879 168.19 307.23L119.556 334.63C122.802 334.352 126.001 333.882 129.122 333.152L161.882 314.696Z" fill="#2F855A"/>
<g opacity="0.5">
<path d="M55.6039 295.169C70.2448 329.252 109.335 352.962 140.984 367.239L161.789 367.102L198.367 366.854L200.145 364.337C179.655 345.91 160.914 332.302 144.206 322.286C144.214 322.278 144.214 322.278 144.206 322.278C88.6703 288.961 55.6039 295.169 55.6039 295.169Z" fill="#FFBE00"/>
</g>
<g opacity="0.5">
<path d="M140.877 312.72C140.877 312.72 121.68 206.307 63.0183 175.249C63.0183 175.249 48.0022 230.176 120.23 324.923" fill="#FFBE00"/>
</g>
<path d="M118.291 168.533H368.242V372.847H118.291V168.533Z" fill="white"/>
<path d="M118.291 168.533H368.242V372.847H118.291V168.533Z" stroke="#2F855A" stroke-width="8" stroke-miterlimit="10"/>
<path d="M187.584 362.833H129.049V265.087C129.049 263.088 130.746 261.467 132.839 261.467H183.794C185.887 261.467 187.584 263.088 187.584 265.087V362.833Z" fill="#FFBE00"/>
<path d="M369.114 168.532H117.419V134.992C117.419 132.312 119.694 130.14 122.5 130.14H364.033C366.839 130.14 369.113 132.312 369.113 134.992L369.114 168.532Z" fill="white"/>
<path d="M369.114 168.532H117.419V134.992C117.419 132.312 119.694 130.14 122.5 130.14H364.033C366.839 130.14 369.113 132.312 369.113 134.992L369.114 168.532Z" stroke="#2F855A" stroke-width="8" stroke-miterlimit="10"/>
<path d="M369.126 145.62V168.543H117.407V145.62H369.126Z" fill="#FFBE00"/>
<path d="M369.126 134.963V168.543H117.407V134.963C117.407 132.341 119.692 130.142 122.482 130.142H364.051C366.842 130.142 369.126 132.341 369.126 134.963Z" stroke="#2F855A" stroke-width="8" stroke-miterlimit="10"/>
<path d="M331.744 158.991H154.789C154.658 158.991 154.551 158.885 154.551 158.754V118.4C154.551 118.268 154.658 118.162 154.789 118.162H331.744C331.875 118.162 331.982 118.268 331.982 118.4V158.754C331.982 158.885 331.875 158.991 331.744 158.991Z" fill="white"/>
<path d="M331.744 158.991H154.789C154.658 158.991 154.551 158.885 154.551 158.754V118.4C154.551 118.268 154.658 118.162 154.789 118.162H331.744C331.875 118.162 331.982 118.268 331.982 118.4V158.754C331.982 158.885 331.875 158.991 331.744 158.991Z" stroke="#2F855A" stroke-width="8" stroke-miterlimit="10"/>
<path d="M326.581 130.226V158.984H160.291C157.161 158.984 154.54 156.363 154.54 153.233V124.475H320.829C323.959 124.475 326.581 127.012 326.581 130.226Z" fill="#FFBE00"/>
<path d="M118.292 229.352C106.788 229.352 97.4629 220.446 97.4629 209.46V195.245L139.121 193.253V209.46C139.121 220.446 129.795 229.352 118.292 229.352Z" fill="white"/>
<path d="M118.292 229.352C106.788 229.352 97.4629 220.446 97.4629 209.46V195.245L139.121 193.253V209.46C139.121 220.446 129.795 229.352 118.292 229.352Z" stroke="#2F855A" stroke-width="8" stroke-miterlimit="10"/>
<path d="M159.95 229.352C148.446 229.352 139.121 220.446 139.121 209.46V193.253H180.779V209.46C180.779 220.446 171.454 229.352 159.95 229.352Z" fill="white"/>
<path d="M159.95 229.352C148.446 229.352 139.121 220.446 139.121 209.46V193.253H180.779V209.46C180.779 220.446 171.454 229.352 159.95 229.352Z" stroke="#2F855A" stroke-width="8" stroke-miterlimit="10"/>
<path d="M201.609 229.352C190.105 229.352 180.779 220.446 180.779 209.46V193.253H222.437V209.46C222.437 220.446 213.112 229.352 201.609 229.352Z" fill="white"/>
<path d="M201.609 229.352C190.105 229.352 180.779 220.446 180.779 209.46V193.253H222.437V209.46C222.437 220.446 213.112 229.352 201.609 229.352Z" stroke="#2F855A" stroke-width="8" stroke-miterlimit="10"/>
<path d="M243.267 229.352C231.763 229.352 222.438 220.446 222.438 209.46V193.253H264.095V209.46C264.096 220.446 254.771 229.352 243.267 229.352Z" fill="white"/>
<path d="M243.267 229.352C231.763 229.352 222.438 220.446 222.438 209.46V193.253H264.095V209.46C264.096 220.446 254.771 229.352 243.267 229.352Z" stroke="#2F855A" stroke-width="8" stroke-miterlimit="10"/>
<path d="M284.925 229.352C273.421 229.352 264.096 220.446 264.096 209.46V193.253H305.754V209.46C305.754 220.446 296.428 229.352 284.925 229.352Z" fill="white"/>
<path d="M284.925 229.352C273.421 229.352 264.096 220.446 264.096 209.46V193.253H305.754V209.46C305.754 220.446 296.428 229.352 284.925 229.352Z" stroke="#2F855A" stroke-width="8" stroke-miterlimit="10"/>
<path d="M326.583 229.352C315.079 229.352 305.754 220.446 305.754 209.46V193.253H347.412V209.46C347.412 220.446 338.087 229.352 326.583 229.352Z" fill="white"/>
<path d="M326.583 229.352C315.079 229.352 305.754 220.446 305.754 209.46V193.253H347.412V209.46C347.412 220.446 338.087 229.352 326.583 229.352Z" stroke="#2F855A" stroke-width="8" stroke-miterlimit="10"/>
<path d="M368.241 229.352C356.737 229.352 347.412 220.446 347.412 209.46V193.253L389.07 194.625V209.46C389.07 220.446 379.745 229.352 368.241 229.352Z" fill="white"/>
<path d="M368.241 229.352C356.737 229.352 347.412 220.446 347.412 209.46V193.253L389.07 194.625V209.46C389.07 220.446 379.745 229.352 368.241 229.352Z" stroke="#2F855A" stroke-width="8" stroke-miterlimit="10"/>
<path d="M136.383 193.226V202.531C136.383 213.526 127.079 222.407 115.576 222.407C110.416 222.407 105.679 220.631 102.042 217.671C100.858 215.133 100.181 212.426 100.181 209.466V193.226H136.383Z" fill="#FFBE00"/>
<path d="M157.233 222.398C145.729 222.398 136.404 213.492 136.404 202.505V186.298H178.061V202.505C178.062 213.492 168.737 222.398 157.233 222.398Z" fill="#FFBE00"/>
<path d="M198.891 222.398C187.387 222.398 178.062 213.492 178.062 202.505V186.298H219.72V202.505C219.72 213.492 210.394 222.398 198.891 222.398Z" fill="#FFBE00"/>
<path d="M240.549 222.398C229.045 222.398 219.72 213.492 219.72 202.505V186.298H261.378V202.505C261.378 213.492 252.053 222.398 240.549 222.398Z" fill="#FFBE00"/>
<path d="M282.207 222.398C270.704 222.398 261.378 213.492 261.378 202.505V186.298H303.036V202.505C303.036 213.492 293.711 222.398 282.207 222.398Z" fill="#FFBE00"/>
<path d="M323.866 222.398C312.362 222.398 303.036 213.492 303.036 202.505V186.298H344.694V202.505C344.695 213.492 335.37 222.398 323.866 222.398Z" fill="#FFBE00"/>
<path d="M365.523 222.398C354.019 222.398 344.694 213.492 344.694 202.505V186.298H386.352V202.505C386.352 213.492 377.027 222.398 365.523 222.398Z" fill="#FFBE00"/>
<path d="M139.145 193.241V209.481C139.145 220.477 129.757 229.358 118.253 229.358C109.795 229.358 102.521 224.536 99.3067 217.685C98.1229 215.148 97.4458 212.441 97.4458 209.481L97.4629 195.245L139.145 193.241Z" stroke="#2F855A" stroke-width="8" stroke-miterlimit="10"/>
<path d="M159.95 229.352C148.446 229.352 139.121 220.446 139.121 209.46V193.253H180.779V209.46C180.779 220.446 171.454 229.352 159.95 229.352Z" stroke="#2F855A" stroke-width="8" stroke-miterlimit="10"/>
<path d="M201.609 229.352C190.105 229.352 180.779 220.446 180.779 209.46V193.253H222.437V209.46C222.437 220.446 213.112 229.352 201.609 229.352Z" stroke="#2F855A" stroke-width="8" stroke-miterlimit="10"/>
<path d="M243.267 229.352C231.763 229.352 222.438 220.446 222.438 209.46V193.253H264.095V209.46C264.096 220.446 254.771 229.352 243.267 229.352Z" stroke="#2F855A" stroke-width="8" stroke-miterlimit="10"/>
<path d="M284.925 229.352C273.421 229.352 264.096 220.446 264.096 209.46V193.253H305.754V209.46C305.754 220.446 296.428 229.352 284.925 229.352Z" stroke="#2F855A" stroke-width="8" stroke-miterlimit="10"/>
<path d="M326.583 229.352C315.079 229.352 305.754 220.446 305.754 209.46V193.253H347.412V209.46C347.412 220.446 338.087 229.352 326.583 229.352Z" stroke="#2F855A" stroke-width="8" stroke-miterlimit="10"/>
<path d="M368.241 229.352C356.737 229.352 347.412 220.446 347.412 209.46V193.253L389.07 194.625V209.46C389.07 220.446 379.745 229.352 368.241 229.352Z" stroke="#2F855A" stroke-width="8" stroke-miterlimit="10"/>
<path d="M139.121 193.254H97.4722L117.399 155.389H153.361L139.121 193.254Z" fill="white"/>
<path d="M139.121 193.254H97.4722L117.399 155.389H153.361L139.121 193.254Z" stroke="#2F855A" stroke-width="8" stroke-miterlimit="10"/>
<path d="M180.779 193.254H139.121L153.361 155.389H189.323L180.779 193.254Z" fill="white"/>
<path d="M180.779 193.254H139.121L153.361 155.389H189.323L180.779 193.254Z" stroke="#2F855A" stroke-width="8" stroke-miterlimit="10"/>
<path d="M222.437 193.254H180.779L189.323 155.389H225.286L222.437 193.254Z" fill="white"/>
<path d="M222.437 193.254H180.779L189.323 155.389H225.286L222.437 193.254Z" stroke="#2F855A" stroke-width="8" stroke-miterlimit="10"/>
<path d="M264.096 193.254H222.438L225.286 155.389H261.248L264.096 193.254Z" fill="white"/>
<path d="M264.096 193.254H222.438L225.286 155.389H261.248L264.096 193.254Z" stroke="#2F855A" stroke-width="8" stroke-miterlimit="10"/>
<path d="M305.754 193.254H264.096L261.248 155.389H297.21L305.754 193.254Z" fill="white"/>
<path d="M305.754 193.254H264.096L261.248 155.389H297.21L305.754 193.254Z" stroke="#2F855A" stroke-width="8" stroke-miterlimit="10"/>
<path d="M347.412 193.254H305.754L297.21 155.389H333.172L347.412 193.254Z" fill="white"/>
<path d="M347.412 193.254H305.754L297.21 155.389H333.172L347.412 193.254Z" stroke="#2F855A" stroke-width="8" stroke-miterlimit="10"/>
<path d="M389.361 192.873L347.412 193.254L333.172 155.389H369.135L389.361 192.873Z" fill="white"/>
<path d="M389.361 192.873L347.412 193.254L333.172 155.389H369.135L389.361 192.873Z" stroke="#2F855A" stroke-width="8" stroke-miterlimit="10"/>
<path d="M379.784 354.18H106.749C101.494 354.18 97.2356 358.248 97.2356 363.266V376.58C97.2356 378.002 98.4431 379.155 99.9321 379.155H386.601C388.09 379.155 389.298 378.002 389.298 376.58V363.266C389.298 358.248 385.039 354.18 379.784 354.18Z" fill="white"/>
<path d="M379.784 354.18H106.749C101.494 354.18 97.2356 358.248 97.2356 363.266V376.58C97.2356 378.002 98.4431 379.155 99.9321 379.155H386.601C388.09 379.155 389.298 378.002 389.298 376.58V363.266C389.298 358.248 385.039 354.18 379.784 354.18Z" stroke="#2F855A" stroke-width="8" stroke-miterlimit="10"/>
<path d="M379.784 354.18H106.749C101.494 354.18 97.2356 358.248 97.2356 363.266V376.58C97.2356 378.002 98.4431 379.155 99.9321 379.155H386.601C388.09 379.155 389.298 378.002 389.298 376.58V363.266C389.298 358.248 385.039 354.18 379.784 354.18Z" fill="#FFBE00"/>
<path d="M379.784 354.18H106.749C101.494 354.18 97.2356 358.248 97.2356 363.266V376.58C97.2356 378.002 98.4431 379.155 99.9321 379.155H386.601C388.09 379.155 389.298 378.002 389.298 376.58V363.266C389.298 358.248 385.039 354.18 379.784 354.18Z" stroke="#2F855A" stroke-width="8" stroke-miterlimit="10"/>
<path d="M338.915 334.752H210.617C208.524 334.752 206.827 333.131 206.827 331.132V263.709C206.827 261.71 208.524 260.089 210.617 260.089H338.915C341.008 260.089 342.706 261.71 342.706 263.709V331.132C342.706 333.131 341.008 334.752 338.915 334.752Z" fill="#FFBE00"/>
<path d="M343.622 327.478H215.324C213.231 327.478 211.533 325.857 211.533 323.858V256.435C211.533 254.435 213.231 252.815 215.324 252.815H343.622C345.715 252.815 347.412 254.435 347.412 256.435V323.858C347.412 325.858 345.715 327.478 343.622 327.478Z" fill="white"/>
<path d="M343.622 327.478H215.324C213.231 327.478 211.533 325.857 211.533 323.858V256.435C211.533 254.435 213.231 252.815 215.324 252.815H343.622C345.715 252.815 347.412 254.435 347.412 256.435V323.858C347.412 325.858 345.715 327.478 343.622 327.478Z" stroke="#2F855A" stroke-width="8" stroke-miterlimit="10"/>
<path d="M193.514 354.18H134.978V256.435C134.978 254.435 136.676 252.815 138.769 252.815H189.723C191.816 252.815 193.514 254.435 193.514 256.435V354.18Z" fill="white"/>
<path d="M193.514 354.18H134.978V256.435C134.978 254.435 136.676 252.815 138.769 252.815H189.723C191.816 252.815 193.514 254.435 193.514 256.435V354.18Z" stroke="#2F855A" stroke-width="8" stroke-miterlimit="10"/>
<path d="M177.156 310.071C179.59 310.071 181.563 308.187 181.563 305.862V298.286C181.563 295.961 179.59 294.076 177.156 294.076C174.722 294.076 172.749 295.961 172.749 298.286V305.862C172.749 308.187 174.722 310.071 177.156 310.071Z" fill="white"/>
<path d="M177.156 310.071C179.59 310.071 181.563 308.187 181.563 305.862V298.286C181.563 295.961 179.59 294.076 177.156 294.076C174.722 294.076 172.749 295.961 172.749 298.286V305.862C172.749 308.187 174.722 310.071 177.156 310.071Z" stroke="#2F855A" stroke-width="8" stroke-miterlimit="10"/>
<path d="M250.888 280.005L279.473 310.071" stroke="#FFBE00" stroke-width="8" stroke-miterlimit="10" stroke-linecap="round"/>
<path d="M269.208 270.69L297.793 300.756" stroke="#FFBE00" stroke-width="8" stroke-miterlimit="10" stroke-linecap="round"/>
<path d="M331.994 123.204V148.642C331.994 151.289 329.542 153.494 326.581 153.641H160.291C157.161 153.641 154.54 151.362 154.54 148.642V123.204C154.54 120.41 157.161 118.131 160.291 118.131H326.242C329.372 118.131 331.994 120.41 331.994 123.204Z" stroke="#2F855A" stroke-width="8" stroke-miterlimit="10"/>
<path d="M365.523 161.297C366.095 161.956 377.956 186.008 377.956 186.008" stroke="#FFBE00" stroke-width="8" stroke-miterlimit="10" stroke-linecap="round"/>
<path d="M327.614 161.297L337.013 186.008" stroke="#FFBE00" stroke-width="8" stroke-miterlimit="10" stroke-linecap="round"/>
<path d="M291.098 161.297L295.322 183.859" stroke="#FFBE00" stroke-width="8" stroke-miterlimit="10" stroke-linecap="round"/>
<path d="M254.288 161.297L255.32 184.839" stroke="#FFBE00" stroke-width="8" stroke-miterlimit="10" stroke-linecap="round"/>
<path d="M219.012 161.297L215.563 184.839" stroke="#FFBE00" stroke-width="8" stroke-miterlimit="10" stroke-linecap="round"/>
<path d="M181.563 162.414C181.241 164.412 175.921 186.009 175.921 186.009" stroke="#FFBE00" stroke-width="8" stroke-miterlimit="10" stroke-linecap="round"/>
<path d="M144.796 161.297L134.683 186.298" stroke="#FFBE00" stroke-width="8" stroke-miterlimit="10" stroke-linecap="round"/>
<path d="M50.6399 379.156H427.34" stroke="#2F855A" stroke-width="8" stroke-miterlimit="10"/>
<path d="M432.072 249.691C432.072 273.196 413.018 292.251 389.513 292.251C366.008 292.251 346.953 273.196 346.953 249.691C346.953 226.186 366.008 207.131 389.513 207.131C413.018 207.131 432.072 226.186 432.072 249.691Z" fill="white"/>
<path d="M432.072 249.691C432.072 273.196 413.018 292.251 389.513 292.251C366.008 292.251 346.953 273.196 346.953 249.691C346.953 226.186 366.008 207.131 389.513 207.131C413.018 207.131 432.072 226.186 432.072 249.691Z" stroke="#2F855A" stroke-width="8" stroke-miterlimit="10"/>
<path d="M346.958 249.695C346.958 273.201 364.43 292.25 385.995 292.25C388.058 292.25 390.089 292.079 392.066 291.735C374.562 287.538 361.469 270.531 361.469 250.185C361.469 233.899 369.862 219.743 382.184 212.583C385.948 210.402 390.074 208.874 394.444 208.136C391.727 207.475 388.901 207.131 385.995 207.131C379.374 207.131 373.137 208.925 367.673 212.093C355.351 219.253 346.958 233.41 346.958 249.695Z" fill="#FFBE00"/>
<path d="M432.072 249.691C432.072 273.196 413.018 292.251 389.513 292.251C366.008 292.251 346.953 273.196 346.953 249.691C346.953 226.186 366.008 207.131 389.513 207.131C413.018 207.131 432.072 226.186 432.072 249.691Z" stroke="#2F855A" stroke-width="8" stroke-miterlimit="10"/>
<path d="M367.303 246.98L388.427 270.546L414.317 235.794" stroke="#FFBE00" stroke-width="8" stroke-miterlimit="10"/>
<path d="M366.273 243.048L387.397 266.615L411.791 234.627" fill="white"/>
<path d="M366.273 243.048L387.397 266.615L411.791 234.627" stroke="#2F855A" stroke-width="8" stroke-miterlimit="10"/>
</svg>
